<svg width="72" height="74" viewBox="0 0 72 74" fill="none" xmlns="http://www.w3.org/2000/svg">
<path fill-rule="evenodd" clip-rule="evenodd" d="M6.552 1.25003C6.34 1.93803 5.889 3.76303 5.55 5.30703C5.06 7.53903 4.531 7.98603 2.967 7.48903C0.822 6.80903 0.0989999 9.32503 2.087 10.554C2.685 10.923 2.952 12.074 2.681 13.112C2.41 14.149 2.596 15.25 3.094 15.558C4.729 16.569 4.042 22.677 2 25.273C0.9 26.671 0 28.679 0 29.733C0 32.748 4.056 35.824 8.5 36.18C12.483 36.499 12.503 36.521 13.193 41.5C13.574 44.25 14.364 49.2 14.948 52.5C15.532 55.8 15.727 61.793 15.381 65.818L14.752 73.135L18.626 72.818L22.5 72.5L23.021 64C23.379 58.15 23.812 56.071 24.409 57.331C24.886 58.339 25.024 62.501 24.715 66.581L24.154 74H27.955C30.045 74 32.239 73.417 32.83 72.705C33.421 71.993 34.038 68.062 34.202 63.969L34.5 56.528L38.5 55.869C44.176 54.933 45.313 56.212 44.758 62.91C44.507 65.929 43.784 68.572 43.151 68.783C42.518 68.994 42 70.029 42 71.083C42 72.64 42.722 73 45.842 73C49.473 73 49.751 72.775 50.911 68.903C51.586 66.649 52.345 65.012 52.597 65.264C52.85 65.516 52.593 66.939 52.028 68.426C50.142 73.386 50.596 74.144 55.246 73.807L59.491 73.5L60.377 68C61.158 63.151 61.383 62.766 62.284 64.75C62.932 66.177 64.186 67 65.712 67C67.035 67 67.85 66.566 67.523 66.036C67.195 65.507 67.843 64.157 68.964 63.036C71.209 60.791 71.718 55.418 69.75 54.729C68.839 54.411 68.986 53.744 70.293 52.27C71.865 50.496 71.896 50.174 70.543 49.655C68.821 48.994 68.449 45.459 70 44.5C70.55 44.16 71 42.109 71 39.941C71 37.773 70.55 36 70 36C69.45 36 69 35.403 69 34.674C69 32.648 64.639 29 62.217 29C60.713 29 60.237 28.547 60.638 27.5C61.072 26.37 60.467 26 58.19 26C56.527 26 54.993 26.522 54.78 27.16C54.567 27.799 51.717 28.652 48.447 29.057C45.176 29.461 41.807 30.076 40.96 30.422C39.075 31.194 36.763 25.612 37.617 22.352C37.926 21.171 37.648 19.21 36.997 17.995C36.142 16.397 36.117 15.483 36.907 14.693C38.258 13.342 38.362 10.658 37.033 11.48C36.5 11.809 34.423 10.26 32.416 8.03903C30.409 5.81803 28.329 4.00003 27.794 4.00003C27.259 4.00003 26.043 3.04003 25.093 1.86703C23.631 0.0610288 23.031 -0.0869713 21.183 0.902029C19.982 1.54503 19 2.56003 19 3.15803C19 3.87203 18.488 3.82003 17.506 3.00503C16.684 2.32303 14.887 1.98003 13.512 2.24203C12.088 2.51503 10.527 2.13503 9.884 1.36003C8.474 -0.338971 7.056 -0.385971 6.552 1.25003Z" fill="black"/>
</svg>
