<svg width="94" height="94" viewBox="0 0 94 94" fill="none" xmlns="http://www.w3.org/2000/svg">
<g clip-path="url(#clip0_150_3258)">
<path fill-rule="evenodd" clip-rule="evenodd" d="M72.5449 44.9383C72.5395 44.931 72.5373 44.9218 72.5388 44.9128L78.5357 9.94437C78.5385 9.92827 78.5526 9.9165 78.5688 9.9165H80.4668C80.4814 9.9165 80.4943 9.926 80.4987 9.93995L94.0094 52.7179C94.0136 52.7311 94.009 52.7458 93.998 52.7544L84.0364 60.532C84.0215 60.5436 84 60.5407 83.9888 60.5254L72.5449 44.9383ZM-0.183594 68.1198C-0.183594 68.1343 -0.174268 68.1471 -0.160481 68.1517L20.3743 74.8659C20.3842 74.8692 20.3952 74.8676 20.4039 74.8617L66.304 43.1734C66.3117 43.1681 66.3168 43.1598 66.3181 43.1506L71.2403 10.1237C71.2434 10.1034 71.2276 10.0852 71.2072 10.0852H30.5511C30.541 10.0852 30.5316 10.0896 30.5252 10.0973L-0.175878 47.1335C-0.180866 47.1396 -0.183594 47.1471 -0.183594 47.155V68.1198ZM28.9313 76.5766L51.3651 83.9254C51.3752 83.9287 51.3864 83.927 51.395 83.9208L78.1041 64.7622C78.119 64.7517 78.1226 64.7314 78.1125 64.7163L68.1001 49.8168C68.0896 49.8011 68.0687 49.7971 68.0532 49.8078L28.9313 76.5766Z" fill="url(#paint0_linear_150_3258)"/>
</g>
<defs>
<linearGradient id="paint0_linear_150_3258" x1="-9.61143" y1="15.4664" x2="39.4636" y2="113.278" gradientUnits="userSpaceOnUse">
<stop stop-color="white"/>
<stop offset="1" stop-color="white" stop-opacity="0"/>
</linearGradient>
<clipPath id="clip0_150_3258">
<rect width="94" height="94" fill="white"/>
</clipPath>
</defs>
</svg>
