<svg width="94" height="94" viewBox="0 0 94 94" fill="none" xmlns="http://www.w3.org/2000/svg">
<g clip-path="url(#clip0_192_15752)">
<path fill-rule="evenodd" clip-rule="evenodd" d="M18.8599 74.5326L33.9369 70.1609L46.9593 93.9713C46.9763 94.0022 47.0206 94.0022 47.0375 93.9713L60.0598 70.1609L75.137 74.5326C75.1708 74.5423 75.2022 74.5109 75.1921 74.4772L70.8197 59.6984L93.9736 47.035C94.0046 47.0181 94.0046 46.9739 93.9738 46.957L70.6289 34.1891L75.1921 18.7654C75.2022 18.7317 75.1708 18.7003 75.137 18.71L59.7062 23.1844L47.0375 0.0207259C47.0206 -0.0101633 46.9763 -0.0101642 46.9594 0.0207252L34.2907 23.1844L18.8599 18.71C18.8261 18.7003 18.7947 18.7317 18.8048 18.7654L23.368 34.1891L0.0231673 46.957C-0.00772189 46.9739 -0.00772275 47.0181 0.0231666 47.035L23.1771 59.6984L18.8048 74.4772C18.7947 74.5109 18.8261 74.5423 18.8599 74.5326ZM30.5596 47.1584L41.2409 53.0002L47.0826 63.6813C47.0995 63.7123 47.144 63.7123 47.1608 63.6813L53.0026 53.0002L63.6837 47.1584C63.7146 47.1415 63.7146 47.0971 63.6837 47.0802L53.0026 41.2384L47.1608 30.5573C47.144 30.5263 47.0995 30.5263 47.0826 30.5573L41.2409 41.2384L30.5596 47.0802C30.5287 47.0971 30.5287 47.1415 30.5596 47.1584Z" fill="url(#paint0_linear_192_15752)"/>
</g>
<defs>
<linearGradient id="paint0_linear_192_15752" x1="-9.40806" y1="7.04618" x2="61.1255" y2="117.503" gradientUnits="userSpaceOnUse">
<stop stop-color="white"/>
<stop offset="1" stop-color="white" stop-opacity="0"/>
</linearGradient>
<clipPath id="clip0_192_15752">
<rect width="94" height="94" fill="white" transform="translate(0 -0.00244141)"/>
</clipPath>
</defs>
</svg>
