<svg width="94" height="94" viewBox="0 0 94 94" fill="none" xmlns="http://www.w3.org/2000/svg">
<g clip-path="url(#clip0_150_3445)">
<path fill-rule="evenodd" clip-rule="evenodd" d="M83.705 78.0597C83.705 78.0597 71.8522 87.566 48.2655 83.6321C30.3706 80.6474 20.8263 60.921 20.8263 50.3177C20.8263 25.1782 39.4328 19.4573 52.0121 19.4573C64.5912 19.4573 72.7973 31.7213 72.7973 41.2168C72.7973 50.7123 66.0815 59.0177 55.63 59.0177C45.1788 59.0177 42.0834 51.6804 42.0834 44.9346C42.0834 38.189 47.5411 35.8124 52.5185 35.8124C57.4959 35.8124 59.2002 40.0618 59.2002 43.7141C59.2002 47.3665 56.3664 48.6744 54.0028 48.6744C51.6392 48.6744 51.4055 47.4819 50.501 46.2287C49.5962 44.9757 51.6547 40.2324 48.2655 40.2324C44.8764 40.2324 44.2446 45.6853 44.2446 45.6853C44.2446 45.6853 45.4802 56.2113 55.63 56.0297C65.78 55.8479 70.5951 48.0012 69.1958 40.2324C67.7964 32.4634 60.2568 24.2081 47.0244 25.8763C33.7921 27.5444 28.3895 40.9144 30.7709 55.2024C33.1523 69.4906 50.2693 77.7692 63.7276 74.7908C77.1861 71.8123 90.5905 62.069 90.5905 37.3659C90.5905 12.6626 69.1958 -2.18627 43.6845 0.260916C18.1732 2.70809 2.33696 25.0117 3.35062 51.81C4.36428 78.6083 29.7927 93.2034 51.295 93.9556C72.7973 94.708 85.9792 82.2608 85.9792 82.2608C85.9792 82.2608 88.9437 79.6173 87.7813 77.553C86.6192 75.4886 83.705 78.0597 83.705 78.0597Z" fill="url(#paint0_linear_150_3445)"/>
</g>
<defs>
<linearGradient id="paint0_linear_150_3445" x1="-5.43167" y1="7.04663" x2="67.1596" y2="112.617" gradientUnits="userSpaceOnUse">
<stop stop-color="white"/>
<stop offset="1" stop-color="white" stop-opacity="0"/>
</linearGradient>
<clipPath id="clip0_150_3445">
<rect width="94" height="94" fill="white"/>
</clipPath>
</defs>
</svg>
