<svg width="85" height="92" viewBox="0 0 85 92" fill="none" xmlns="http://www.w3.org/2000/svg">
<path fill-rule="evenodd" clip-rule="evenodd" d="M13.8854 79.9023C13.5627 79.5988 13.2436 79.2895 12.9282 78.9741C-3.72087 62.325 -3.72087 35.3314 12.9282 18.6824C29.5773 2.03324 82.6278 0.919434 82.6278 0.919434C82.6278 0.919434 89.8691 62.325 73.2201 78.9741C58.4334 93.7607 35.4875 95.4149 18.8754 83.9368L32.2609 67.5105L53.6587 62.8907L36.1918 61.1445L47.2922 49.8421L59.9279 47.0741L49.9364 44.1151L59.9279 26.0906L45.7159 42.0317L40.2277 34.2872L42.1597 47.0741L32.2609 58.2333L27.6723 44.1149V62.8907L13.8854 79.9023Z" fill="url(#paint0_linear_150_1747)"/>
<defs>
<linearGradient id="paint0_linear_150_1747" x1="-7.94141" y1="7.70895" x2="62.0847" y2="109.15" gradientUnits="userSpaceOnUse">
<stop stop-color="white"/>
<stop offset="1" stop-color="white" stop-opacity="0"/>
</linearGradient>
</defs>
</svg>
