<svg width="68" height="89" viewBox="0 0 68 89" fill="none" xmlns="http://www.w3.org/2000/svg">
<path fill-rule="evenodd" clip-rule="evenodd" d="M49.8181 0.614461C45.4541 1.77346 45.0871 10.9225 49.0561 19.6345C51.7241 25.4925 52.7891 33.9445 50.8581 33.9435C49.1751 33.9425 40.3461 30.6545 39.3481 29.6575C38.2971 28.6055 26.1831 28.7895 25.5171 29.8675C25.2031 30.3755 23.5031 31.1075 21.7401 31.4945C12.7641 33.4665 -0.137886 46.1735 0.00111375 52.9055C0.0551137 55.5245 2.72512 58.2525 4.54811 57.5525C5.46911 57.1995 6.83211 57.4155 7.57611 58.0335C8.57411 58.8615 10.6011 58.8655 15.2811 58.0505C18.7751 57.4425 21.9331 56.9445 22.3011 56.9445C23.6521 56.9445 22.9101 60.3035 20.8081 63.7045C18.9421 66.7245 18.8271 67.4875 19.9641 69.3085C20.6881 70.4685 21.6001 74.6795 21.9911 78.6665C22.9041 87.9935 23.9701 89.2945 30.2021 88.6965C32.8481 88.4415 35.2921 87.9545 35.6331 87.6135C36.7161 86.5305 33.8331 83.9665 30.5931 83.1305C27.4901 82.3295 27.4671 82.2745 27.1721 74.9985C26.9121 68.5725 27.1491 67.3815 29.0971 65.3085C32.0451 62.1705 33.2651 62.3225 32.5151 65.7335C32.0881 67.6785 32.6531 69.9325 34.3811 73.1835C35.7441 75.7475 37.1631 79.4645 37.5351 81.4435C38.5371 86.7865 40.2311 87.9445 47.0401 87.9445C50.3011 87.9445 52.9691 87.5265 52.9691 87.0155C52.9691 85.2175 50.0281 83.1785 46.4731 82.5115C43.7781 82.0055 42.6401 81.1625 41.9231 79.1405C41.3981 77.6575 40.5491 75.7125 40.0371 74.8175C39.5251 73.9225 38.8241 71.6725 38.4781 69.8175C37.9231 66.8305 38.2871 66.0345 41.6601 62.8585C43.7661 60.8765 47.4781 58.7025 49.9641 57.9955C56.5621 56.1195 62.5731 49.7655 63.4821 43.7065C64.2371 38.6685 62.5991 29.7205 60.5431 27.6575C59.0621 26.1705 56.9691 20.3445 56.9691 17.7055C56.9691 14.9345 60.9161 12.0165 64.7191 11.9775C68.6741 11.9375 68.7231 11.5375 65.2191 7.86346C63.7061 6.27746 61.4731 3.84646 60.2551 2.46246C58.1051 0.0174608 54.4831 -0.623539 49.8181 0.614461Z" fill="black"/>
</svg>
