<svg width="76" height="83" viewBox="0 0 76 83" fill="none" xmlns="http://www.w3.org/2000/svg">
<path fill-rule="evenodd" clip-rule="evenodd" d="M28.279 2.94917C24.85 6.37817 24.861 10.8592 28.308 14.3062C30.536 16.5342 30.784 17.3552 30.028 20.0112C29.26 22.7082 28.529 23.2332 24.426 24.0312C21.83 24.5352 19.706 25.3232 19.706 25.7812C19.706 26.2382 18.918 26.6152 17.956 26.6182C14.277 26.6292 6.29595 33.9332 3.20995 40.1132C0.479952 45.5792 0.196952 47.0922 0.0289523 57.1132C-0.201048 70.8542 0.670954 73.8112 6.03595 77.4752C14.051 82.9502 17.881 83.3642 38.827 81.0172C42.517 80.6032 44.684 80.7692 45.136 81.5002C46.249 83.3012 48.706 82.7752 48.706 80.7352C48.706 76.8052 46.1189 76.1142 31.299 76.0862C21.34 76.0662 16.399 75.6532 14.456 74.6752C10.537 72.7042 11.057 71.6732 15.456 72.6942C20.814 73.9392 31.312 73.8112 35.865 72.4472C38.816 71.5632 40.966 71.5602 44.757 72.4352C49.187 73.4582 50.18 73.3632 53.467 71.6012C55.656 70.4282 59.096 69.6132 61.859 69.6132C67.779 69.6132 69.706 68.8702 69.706 66.5892C69.706 65.5942 70.263 64.5942 70.944 64.3672C72.985 63.6872 70.164 58.7662 67.324 58.0532C65.151 57.5082 64.83 56.7992 64.48 51.7762C64.263 48.6612 63.758 45.4062 63.358 44.5432C62.811 43.3622 63.849 42.3092 67.539 40.3002C74.019 36.7742 75.082 35.3672 74.288 31.3722C73.932 29.5802 73.248 25.7762 72.767 22.9192C72.287 20.0632 71.61 17.2672 71.263 16.7062C70.917 16.1452 71.538 14.7812 72.644 13.6752C75.168 11.1512 76.312 6.79917 75 4.70817C73.059 1.61517 69.054 1.05117 64.449 3.22317C60.948 4.87417 59.463 5.05817 55.956 4.27617C53.308 3.68617 50.104 3.68117 47.456 4.26217C43.942 5.03317 42.767 4.88017 40.673 3.37617C39.28 2.37617 36.5 1.29217 34.496 0.966167C31.466 0.475167 30.42 0.808167 28.279 2.94917Z" fill="black"/>
</svg>
