<svg width="59" height="71" viewBox="0 0 59 71" fill="none" xmlns="http://www.w3.org/2000/svg">
<path fill-rule="evenodd" clip-rule="evenodd" d="M22.9792 1.99996C22.6632 2.82496 21.8232 3.49996 21.1132 3.49996C20.4032 3.49996 19.2612 4.39896 18.5742 5.49796C17.3272 7.49496 17.3252 7.49496 13.5992 5.49796C11.5482 4.39896 8.64219 3.49996 7.14119 3.49996C2.23919 3.49996 1.55519 7.36596 3.93019 21.652C4.42119 24.604 4.10619 25.735 2.28719 27.554C0.0971885 29.744 0.0871888 29.841 1.93419 31.192C3.46419 32.31 3.56719 32.742 2.46619 33.423C1.32719 34.127 1.34419 34.41 2.56719 35.133C3.37319 35.61 5.90919 37.624 8.20319 39.61L12.3732 43.219L10.3702 49.61C6.87719 60.753 8.32419 68.5 13.8982 68.5C15.2422 68.5 16.3412 68.95 16.3412 69.5C16.3412 70.656 22.6392 70.869 23.7582 69.75C24.1702 69.338 28.6332 68.965 33.6742 68.922C41.3052 68.858 43.5112 68.461 46.8412 66.555C53.8532 62.542 56.3412 60.415 56.3412 58.432C56.3412 57.369 56.7912 56.5 57.3412 56.5C57.8912 56.5 58.3412 54.945 58.3412 53.045C58.3412 49.852 58.0602 49.538 54.6352 48.895C52.0172 48.404 50.1102 48.67 48.1432 49.799C45.5672 51.277 45.2912 51.27 44.4872 49.699C41.7622 44.373 42.1552 42.824 47.5902 37.49C51.0472 34.097 52.3932 32.157 51.5302 31.814C50.5142 31.41 50.6122 30.858 51.9612 29.367C53.6252 27.528 53.6062 27.374 51.5222 25.914C48.9922 24.142 48.6902 21.009 50.8412 18.857C52.9822 16.716 52.8642 7.16596 50.6692 4.97096C48.6942 2.99496 42.0662 3.63196 39.6702 6.02796C38.8612 6.83696 37.8172 7.49996 37.3512 7.49996C35.2992 7.49996 33.3412 6.16296 33.3412 4.76096C33.3412 3.55996 32.4932 3.34996 29.3412 3.77296C25.8872 4.23696 25.3412 4.04996 25.3412 2.40496C25.3412 0.138959 23.7952 -0.126041 22.9792 1.99996Z" fill="black"/>
</svg>
