<svg width="94" height="61" viewBox="0 0 94 61" fill="none" xmlns="http://www.w3.org/2000/svg">
<path fill-rule="evenodd" clip-rule="evenodd" d="M66.6775 2.26965C64.8625 3.54165 63.8025 3.64065 61.3065 2.76965C56.1665 0.978649 54.8595 1.31465 57.0895 3.85565C58.9685 5.99565 58.9675 6.01465 56.9945 5.26965C55.8945 4.85465 53.4195 4.29665 51.4945 4.03065C48.1325 3.56365 48.0735 3.60865 49.9945 5.17265C51.8795 6.70765 51.6785 6.76065 46.4945 6.09965L40.9945 5.39765L42.9945 7.69865L44.9945 9.99965L42.4945 9.26165C39.0195 8.23665 34.7295 7.55165 36.2445 8.26465C39.0665 9.59165 37.2525 10.6716 33.2445 10.0496C29.0515 9.39865 29.0185 9.41665 30.7685 11.3936C32.5215 13.3726 32.4825 13.3906 27.5185 12.9136C24.3865 12.6126 22.4945 12.8246 22.4945 13.4746C22.4945 14.0496 23.0575 14.7456 23.7445 15.0236C24.4325 15.3006 23.3215 15.5636 21.2755 15.6066C18.3995 15.6676 17.6875 16.0256 18.1325 17.1856C18.5325 18.2266 18.0635 18.6856 16.6015 18.6856C15.4425 18.6856 14.4945 19.1796 14.4945 19.7826C14.4945 20.3866 12.2255 22.9196 9.4525 25.4126C3.5855 30.6886 1.9475 33.4807 0.994504 39.8357C0.465504 43.3637 0.758504 45.4947 2.2315 48.8227C4.3565 53.6277 10.1835 59.3187 13.9435 60.2627C15.2705 60.5957 23.2495 60.7016 31.6755 60.4976C45.5945 60.1616 47.3375 59.9157 50.7445 57.8077C54.5325 55.4647 56.0365 52.7877 52.7445 54.2486C49.8645 55.5266 20.3185 55.9827 17.2445 54.7966C11.3625 52.5266 8.4685 42.7117 12.4945 38.6856C15.1925 35.9876 22.8875 35.7877 22.1255 38.4356C21.8485 39.3977 21.0715 42.0996 20.3995 44.4386C19.4465 47.7506 19.4405 49.2727 20.3725 51.3176C21.0305 52.7626 21.8485 53.6646 22.1895 53.3237C22.5315 52.9827 23.4795 53.2576 24.2965 53.9366C25.5675 54.9916 25.6715 54.8097 25.0145 52.6777L24.2465 50.1856L26.8665 52.6067C29.7085 55.2317 31.6555 54.7977 29.3875 52.0437C28.1305 50.5187 28.2385 50.4187 30.4945 51.0117C38.2925 53.0647 38.2605 53.0657 35.0935 50.8637L32.1925 48.8476L35.0935 48.4607L37.9945 48.0746L34.9945 47.2966C28.9945 45.7407 29.0255 45.7716 31.3375 43.6176C32.5235 42.5126 33.4945 41.1756 33.4945 40.6466C33.4945 40.1176 33.9445 39.6856 34.4945 39.6856C35.0445 39.6856 35.4945 40.5157 35.4945 41.5307C35.4945 43.5937 39.1445 47.3686 40.1585 46.3546C40.5175 45.9966 41.4255 46.2136 42.1765 46.8367C44.1185 48.4487 45.0525 47.0657 43.3875 45.0457C42.1215 43.5126 42.1935 43.4646 44.1785 44.5216C47.1685 46.1146 49.5245 46.0286 47.4065 44.4036C46.5335 43.7337 46.0085 42.6236 46.2405 41.9356C46.4715 41.2486 45.8735 40.6856 44.9115 40.6856C42.2895 40.6856 44.1165 39.3707 48.5605 38.0577C52.4725 36.9037 52.4945 36.9127 52.4945 39.6687C52.4945 43.0277 53.7505 44.1576 59.0595 45.5766C61.2955 46.1746 64.1865 47.7936 65.4835 49.1746C68.1675 52.0306 69.4945 52.3657 69.4945 50.1856C69.4945 49.3606 69.8895 48.6856 70.3725 48.6856C70.8545 48.6856 71.8095 49.3606 72.4945 50.1856C73.1795 51.0107 74.2245 51.6856 74.8165 51.6856C75.5185 51.6856 75.4765 51.2677 74.6945 50.4856C72.7935 48.5846 73.2785 47.9296 76.2445 48.3896C78.8845 48.7996 78.9165 48.7537 77.0535 47.2517C75.1855 45.7447 75.2235 45.6847 78.0535 45.6707C80.3195 45.6586 80.6505 45.4327 79.4945 44.6856C78.4945 44.0396 78.4115 43.7117 79.2445 43.7006C79.9325 43.6926 80.4945 43.2356 80.4945 42.6856C80.4945 42.1357 79.3425 41.6856 77.9355 41.6856C76.4845 41.6856 75.6435 41.2527 75.9945 40.6856C76.3345 40.1357 75.7125 39.6856 74.6125 39.6856C72.0355 39.6856 71.1515 38.1887 71.9195 35.1287C72.2845 33.6736 73.2585 32.6856 74.3265 32.6856C76.2475 32.6856 80.5265 28.5936 82.3825 24.9816C83.0055 23.7696 85.8005 19.7966 88.5935 16.1526C92.5935 10.9336 93.5405 9.00565 93.0555 7.07265C92.3515 4.26665 90.4445 3.36265 81.9345 1.79865C73.6165 0.270649 69.3435 0.402649 66.6775 2.26965ZM64.7895 37.4356C65.4275 40.7566 65.5275 40.6536 62.7005 39.5846C60.7695 38.8546 60.5775 38.3986 61.4855 36.7016C62.9765 33.9166 64.1645 34.1806 64.7895 37.4356Z" fill="black"/>
</svg>
