<svg width="74" height="69" viewBox="0 0 74 69" fill="none" xmlns="http://www.w3.org/2000/svg">
<path fill-rule="evenodd" clip-rule="evenodd" d="M30.734 2.116C29.942 3.354 29.001 5.164 28.642 6.139C28.081 7.662 27.686 7.732 25.836 6.639C24.491 5.844 23.538 5.742 23.297 6.366C21.987 9.765 21.224 10.096 18.628 8.394C17.215 7.469 15.021 6.859 13.752 7.039C11.835 7.311 11.45 7.959 11.48 10.866C11.499 12.791 11.858 15.491 12.277 16.866C12.902 18.916 12.842 19.051 11.942 17.616C9.03497 12.98 2.80496 17.74 4.82496 23.054C5.66596 25.264 5.52096 25.743 3.88096 26.172C1.76496 26.726 1.31696 29.826 2.91996 32.821C3.69196 34.265 3.48396 34.753 1.91996 35.162C-1.09704 35.951 -0.493031 39.629 3.27197 43.394C6.17597 46.298 6.36697 46.784 4.77197 47.201C0.63097 48.284 4.64697 55.866 9.36297 55.866C11.674 55.866 11.829 56.078 10.763 57.785C7.94397 62.297 15.184 64.464 22.653 61.343C24.813 60.441 26.535 60.205 26.881 60.764C27.202 61.283 28.697 62.017 30.204 62.395C35.926 63.831 32.649 66.681 24.944 66.97C21.824 67.087 21.987 67.2 26.444 68.007C29.199 68.506 36.382 68.572 42.444 68.154C53.105 67.418 53.244 67.379 46.953 66.88C41.87 66.478 40.391 65.994 40.137 64.652C39.912 63.471 40.687 62.728 42.628 62.264C44.177 61.893 46.041 61.119 46.77 60.542C47.719 59.792 48.329 59.871 48.914 60.817C49.363 61.544 52.026 62.36 54.832 62.629C60.464 63.17 63.397 61.707 62.622 58.742C62.283 57.445 62.834 56.897 64.701 56.672C68.166 56.255 69.819 53.497 68.178 50.869C67.161 49.241 67.177 48.866 68.261 48.866C70.126 48.866 73.944 44.593 73.944 42.506C73.944 41.554 72.834 39.665 71.477 38.308C69.063 35.895 69.053 35.815 70.977 34.613C74.882 32.175 71.689 23.599 67.478 25.215C66.111 25.739 66.115 25.534 67.518 23.394C70.512 18.824 67.264 12.936 63.163 15.497C61.562 16.497 61.415 16.272 61.756 13.354C62.223 9.351 60.496 5.866 58.044 5.866C57.037 5.866 55.028 6.799 53.579 7.939L50.944 10.011V7.939C50.944 6.799 50.546 5.866 50.061 5.866C49.575 5.866 48.943 4.968 48.656 3.871C47.802 0.606995 45.061 0.294996 42.218 3.137L39.666 5.689L37.216 2.778C34.273 -0.720003 32.655 -0.885004 30.734 2.116ZM36.944 64.866C36.944 65.966 36.494 66.866 35.944 66.866C35.394 66.866 34.944 65.966 34.944 64.866C34.944 63.766 35.394 62.866 35.944 62.866C36.494 62.866 36.944 63.766 36.944 64.866Z" fill="black"/>
</svg>
