<svg width="83" height="85" viewBox="0 0 83 85" fill="none" xmlns="http://www.w3.org/2000/svg">
<path fill-rule="evenodd" clip-rule="evenodd" d="M58.242 3.4148C55.828 5.9218 54.992 7.6958 54.992 10.3158C54.992 12.2558 54.606 14.0818 54.133 14.3738C53.661 14.6648 53.025 17.6598 52.72 21.0278C52.301 25.6488 51.664 27.5018 50.127 28.5788C49.007 29.3638 47.425 30.6708 46.613 31.4828C45.8 32.2958 44.742 32.9608 44.263 32.9608C42.757 32.9608 38.008 35.4248 38 36.2108C37.996 36.6238 37.191 36.9608 36.213 36.9608C35.234 36.9608 33.785 37.8608 32.992 38.9608C32.199 40.0608 31.203 40.9608 30.779 40.9608C29.697 40.9608 25.796 44.3608 17.874 52.2108C14.127 55.9228 10.37 58.9608 9.52597 58.9608C8.68297 58.9608 7.99197 59.4108 7.99197 59.9608C7.99197 60.5108 7.09197 60.9608 5.99197 60.9608C4.65897 60.9608 3.99197 61.6278 3.99197 62.9608C3.99197 64.0608 4.32997 64.9678 4.74197 64.9758C5.15397 64.9848 6.13097 65.3958 6.91297 65.8908C8.03897 66.6038 7.46897 67.6198 4.16297 70.7968C-0.358032 75.1398 -1.37403 78.9608 1.99197 78.9608C3.09197 78.9608 3.99197 79.4108 3.99197 79.9608C3.99197 80.5108 6.19297 80.9608 8.88297 80.9608C13.017 80.9608 15.215 80.1088 23.082 75.4608C31.992 70.1958 35.992 68.8018 35.992 70.9608C35.992 71.5108 37.117 71.9608 38.492 71.9608C39.867 71.9608 40.992 72.4108 40.992 72.9608C40.992 73.5108 41.892 73.9608 42.992 73.9608C44.242 73.9608 44.992 74.6278 44.992 75.7388C44.992 76.7168 45.997 78.3768 47.226 79.4288L49.46 81.3418L46.226 82.1798C39.154 84.0128 43.337 84.9608 58.492 84.9608C67.017 84.9608 73.992 84.5588 73.992 84.0678C73.992 82.8018 71.385 81.9608 67.46 81.9608C65.607 81.9608 63.732 81.3518 63.292 80.6068C62.852 79.8618 61.514 78.7398 60.319 78.1128C58.163 76.9818 58.172 76.9468 61.552 73.4668C63.424 71.5388 65.415 69.9608 65.974 69.9608C66.534 69.9608 66.992 69.5108 66.992 68.9608C66.992 68.4108 67.739 67.9608 68.651 67.9608C70.789 67.9608 78.992 59.0538 78.992 56.7328C78.992 55.7578 79.442 54.9608 79.992 54.9608C80.592 54.9608 80.992 50.9608 80.992 44.9608C80.992 39.0408 80.589 34.9608 80.004 34.9608C79.46 34.9608 78.726 33.1508 78.372 30.9388C78.019 28.7268 77.338 26.6748 76.861 26.3798C76.383 26.0848 75.992 24.2948 75.992 22.4018C75.992 19.4298 76.321 18.9608 78.409 18.9608C79.738 18.9608 81.035 19.5238 81.292 20.2108C81.601 21.0378 82.017 20.8348 82.521 19.6098C82.94 18.5918 82.859 17.4668 82.34 17.1098C80.415 15.7868 76.992 10.0888 76.992 8.2098C76.992 6.0088 73.839 1.9608 72.125 1.9608C71.502 1.9608 70.992 1.5108 70.992 0.960804C70.992 0.410804 68.854 -0.0211956 66.242 0.000804404C62.182 0.0338044 61.02 0.529804 58.242 3.4148ZM56.555 79.6658C57.7 80.8118 57.877 81.4988 57.093 81.7608C55.22 82.3848 52.992 81.1528 52.992 79.4918C52.992 77.4788 54.438 77.5498 56.555 79.6658Z" fill="black"/>
</svg>
