<svg width="26" height="26" viewBox="0 0 26 26" fill="none" xmlns="http://www.w3.org/2000/svg">
<path d="M13 24.9168C3.79167 16.7918 4.33333 14.6252 3.25 10.8335H22.75C22.75 15.7085 18.4167 21.6668 13 24.9168Z" fill="white"/>
<path d="M22.75 10.8335H3.25C3.43056 7.94461 5.41667 1.62516 13 1.0835C20.0417 1.0835 22.5694 7.5835 22.75 10.8335Z" fill="#CD3131"/>
<circle cx="13" cy="10.8335" r="3.25" fill="white"/>
<path d="M22.75 10.8335C22.75 18.4168 13 24.9168 13 24.9168C13 24.9168 3.25 18.4168 3.25 10.8335C3.25 8.24764 4.27723 5.76768 6.10571 3.9392C7.93419 2.11073 10.4141 1.0835 13 1.0835C15.5859 1.0835 18.0658 2.11073 19.8943 3.9392C21.7228 5.76768 22.75 8.24764 22.75 10.8335Z" stroke="#173EA5" stroke-width="1.625" stroke-linecap="round" stroke-linejoin="round"/>
<path d="M13 14.0835C13.862 14.0835 14.6886 13.7411 15.2981 13.1316C15.9076 12.5221 16.25 11.6954 16.25 10.8335C16.25 9.97154 15.9076 9.14489 15.2981 8.5354C14.6886 7.92591 13.862 7.5835 13 7.5835C12.138 7.5835 11.3114 7.92591 10.7019 8.5354C10.0924 9.14489 9.75 9.97154 9.75 10.8335C9.75 11.6954 10.0924 12.5221 10.7019 13.1316C11.3114 13.7411 12.138 14.0835 13 14.0835V14.0835Z" stroke="#173EA5" stroke-width="1.625" stroke-linecap="round" stroke-linejoin="round"/>
<path d="M3.25 10.8335L10.075 10.8335M15.925 10.8335L22.75 10.8335" stroke="#173EA5" stroke-width="1.625"/>
</svg>
